<mxfile host="" modified="2020-06-18T03:17:13.042Z" agent="5.0 (Windows NT 10.0; Win64; x64) AppleWebKit/537.36 (KHTML, like Gecko) Code/1.46.0 Chrome/78.0.3904.130 Electron/7.3.1 Safari/537.36" etag="GQO8mKQ4_z8jAfAiEBBh" version="13.1.3">
    <diagram id="6hGFLwfOUW9BJ-s0fimq" name="Page-1">
        <mxGraphModel dx="1699" dy="490" grid="1" gridSize="10" guides="1" tooltips="1" connect="1" arrows="1" fold="1" page="1" pageScale="1" pageWidth="827" pageHeight="1169" math="0" shadow="0">
            <root>
                <mxCell id="0"/>
                <mxCell id="1" parent="0"/>
                <mxCell id="5" value="Offer" style="swimlane;" vertex="1" parent="1">
                    <mxGeometry x="-60" y="10" width="200" height="250" as="geometry"/>
                </mxCell>
                <mxCell id="8" value="&lt;div style=&quot;color: rgb(255 , 255 , 255) ; background-color: rgb(0 , 0 , 0) ; font-family: &amp;#34;fira code retina&amp;#34; , &amp;#34;consolas&amp;#34; , &amp;#34;courier new&amp;#34; , monospace ; font-size: 13px ; line-height: 18px&quot;&gt;&lt;span style=&quot;color: #9cdcfe&quot;&gt;summary&lt;/span&gt;&lt;/div&gt;" style="text;html=1;align=center;verticalAlign=middle;resizable=0;points=[];autosize=1;" vertex="1" parent="5">
                    <mxGeometry x="55" y="50" width="70" height="20" as="geometry"/>
                </mxCell>
                <mxCell id="9" value="&lt;div style=&quot;color: rgb(255 , 255 , 255) ; background-color: rgb(0 , 0 , 0) ; font-family: &amp;#34;fira code retina&amp;#34; , &amp;#34;consolas&amp;#34; , &amp;#34;courier new&amp;#34; , monospace ; font-size: 13px ; line-height: 18px&quot;&gt;&lt;span style=&quot;color: #9cdcfe&quot;&gt;description&lt;/span&gt;&lt;/div&gt;" style="text;html=1;align=center;verticalAlign=middle;resizable=0;points=[];autosize=1;" vertex="1" parent="5">
                    <mxGeometry x="40" y="70" width="100" height="20" as="geometry"/>
                </mxCell>
                <mxCell id="12" value="&lt;div style=&quot;color: rgb(255 , 255 , 255) ; background-color: rgb(0 , 0 , 0) ; font-family: &amp;#34;fira code retina&amp;#34; , &amp;#34;consolas&amp;#34; , &amp;#34;courier new&amp;#34; , monospace ; font-size: 13px ; line-height: 18px&quot;&gt;&lt;span style=&quot;color: #9cdcfe&quot;&gt;title&lt;/span&gt;&lt;/div&gt;" style="text;html=1;align=center;verticalAlign=middle;resizable=0;points=[];autosize=1;" vertex="1" parent="5">
                    <mxGeometry x="60" y="30" width="60" height="20" as="geometry"/>
                </mxCell>
                <mxCell id="13" value="&lt;div style=&quot;color: rgb(255 , 255 , 255) ; background-color: rgb(0 , 0 , 0) ; font-family: &amp;#34;fira code retina&amp;#34; , &amp;#34;consolas&amp;#34; , &amp;#34;courier new&amp;#34; , monospace ; font-size: 13px ; line-height: 18px&quot;&gt;&lt;span style=&quot;color: #9cdcfe&quot;&gt;profession&lt;/span&gt;&lt;/div&gt;" style="text;html=1;align=center;verticalAlign=middle;resizable=0;points=[];autosize=1;" vertex="1" parent="5">
                    <mxGeometry x="40" y="90" width="100" height="20" as="geometry"/>
                </mxCell>
                <mxCell id="14" value="&lt;div style=&quot;color: rgb(255 , 255 , 255) ; background-color: rgb(0 , 0 , 0) ; font-family: &amp;#34;fira code retina&amp;#34; , &amp;#34;consolas&amp;#34; , &amp;#34;courier new&amp;#34; , monospace ; font-size: 13px ; line-height: 18px&quot;&gt;&lt;span style=&quot;color: #9cdcfe&quot;&gt;availability&lt;/span&gt;&lt;/div&gt;" style="text;html=1;align=center;verticalAlign=middle;resizable=0;points=[];autosize=1;" vertex="1" parent="5">
                    <mxGeometry x="35" y="110" width="110" height="20" as="geometry"/>
                </mxCell>
                <mxCell id="15" value="&lt;div style=&quot;color: rgb(255 , 255 , 255) ; background-color: rgb(0 , 0 , 0) ; font-family: &amp;#34;fira code retina&amp;#34; , &amp;#34;consolas&amp;#34; , &amp;#34;courier new&amp;#34; , monospace ; font-size: 13px ; line-height: 18px&quot;&gt;&lt;span style=&quot;color: #9cdcfe&quot;&gt;workplace&lt;/span&gt;&lt;/div&gt;" style="text;html=1;align=center;verticalAlign=middle;resizable=0;points=[];autosize=1;" vertex="1" parent="5">
                    <mxGeometry x="45" y="130" width="90" height="20" as="geometry"/>
                </mxCell>
                <mxCell id="16" value="&lt;div style=&quot;color: rgb(255 , 255 , 255) ; background-color: rgb(0 , 0 , 0) ; font-family: &amp;#34;fira code retina&amp;#34; , &amp;#34;consolas&amp;#34; , &amp;#34;courier new&amp;#34; , monospace ; font-size: 13px ; line-height: 18px&quot;&gt;&lt;span style=&quot;color: #9cdcfe&quot;&gt;active&lt;/span&gt;&lt;/div&gt;" style="text;html=1;align=center;verticalAlign=middle;resizable=0;points=[];autosize=1;" vertex="1" parent="5">
                    <mxGeometry x="60" y="150" width="60" height="20" as="geometry"/>
                </mxCell>
                <mxCell id="17" value="&lt;div style=&quot;color: rgb(255 , 255 , 255) ; background-color: rgb(0 , 0 , 0) ; font-family: &amp;#34;fira code retina&amp;#34; , &amp;#34;consolas&amp;#34; , &amp;#34;courier new&amp;#34; , monospace ; font-size: 13px ; line-height: 18px&quot;&gt;&lt;span style=&quot;color: #9cdcfe&quot;&gt;quota&lt;/span&gt;&lt;/div&gt;" style="text;html=1;align=center;verticalAlign=middle;resizable=0;points=[];autosize=1;" vertex="1" parent="5">
                    <mxGeometry x="60" y="170" width="60" height="20" as="geometry"/>
                </mxCell>
                <mxCell id="18" value="&lt;div style=&quot;color: rgb(255 , 255 , 255) ; background-color: rgb(0 , 0 , 0) ; font-family: &amp;#34;fira code retina&amp;#34; , &amp;#34;consolas&amp;#34; , &amp;#34;courier new&amp;#34; , monospace ; font-size: 13px ; line-height: 18px&quot;&gt;&lt;span style=&quot;color: #9cdcfe&quot;&gt;publicationdate&lt;/span&gt;&lt;/div&gt;" style="text;html=1;align=center;verticalAlign=middle;resizable=0;points=[];autosize=1;" vertex="1" parent="5">
                    <mxGeometry x="20" y="190" width="140" height="20" as="geometry"/>
                </mxCell>
                <mxCell id="19" value="&lt;div style=&quot;color: rgb(255 , 255 , 255) ; background-color: rgb(0 , 0 , 0) ; font-family: &amp;#34;fira code retina&amp;#34; , &amp;#34;consolas&amp;#34; , &amp;#34;courier new&amp;#34; , monospace ; font-size: 13px ; line-height: 18px&quot;&gt;&lt;span style=&quot;color: #9cdcfe&quot;&gt;postulantRef&lt;/span&gt;&lt;/div&gt;" style="text;html=1;align=center;verticalAlign=middle;resizable=0;points=[];autosize=1;" vertex="1" parent="5">
                    <mxGeometry x="35" y="210" width="110" height="20" as="geometry"/>
                </mxCell>
                <mxCell id="20" value="Postulant" style="swimlane;" vertex="1" parent="1">
                    <mxGeometry x="230" y="10" width="200" height="140" as="geometry"/>
                </mxCell>
                <mxCell id="21" value="&lt;div style=&quot;background-color: rgb(0 , 0 , 0) ; line-height: 18px&quot;&gt;&lt;font color=&quot;#9cdcfe&quot; face=&quot;fira code retina, consolas, courier new, monospace&quot;&gt;&lt;span style=&quot;font-size: 13px&quot;&gt;experiences&lt;/span&gt;&lt;/font&gt;&lt;br&gt;&lt;/div&gt;" style="text;html=1;align=center;verticalAlign=middle;resizable=0;points=[];autosize=1;" vertex="1" parent="20">
                    <mxGeometry x="45" y="50" width="100" height="20" as="geometry"/>
                </mxCell>
                <mxCell id="22" value="&lt;div style=&quot;background-color: rgb(0 , 0 , 0) ; line-height: 18px&quot;&gt;&lt;font color=&quot;#9cdcfe&quot; face=&quot;fira code retina, consolas, courier new, monospace&quot;&gt;&lt;span style=&quot;font-size: 13px&quot;&gt;studies&lt;/span&gt;&lt;/font&gt;&lt;br&gt;&lt;/div&gt;" style="text;html=1;align=center;verticalAlign=middle;resizable=0;points=[];autosize=1;" vertex="1" parent="20">
                    <mxGeometry x="60" y="70" width="70" height="20" as="geometry"/>
                </mxCell>
                <mxCell id="23" value="&lt;div style=&quot;background-color: rgb(0 , 0 , 0) ; line-height: 18px&quot;&gt;&lt;font color=&quot;#9cdcfe&quot; face=&quot;fira code retina, consolas, courier new, monospace&quot;&gt;&lt;span style=&quot;font-size: 13px&quot;&gt;intendedsalary&lt;/span&gt;&lt;/font&gt;&lt;br&gt;&lt;/div&gt;" style="text;html=1;align=center;verticalAlign=middle;resizable=0;points=[];autosize=1;" vertex="1" parent="20">
                    <mxGeometry x="30" y="30" width="130" height="20" as="geometry"/>
                </mxCell>
                <mxCell id="24" value="&lt;div style=&quot;background-color: rgb(0 , 0 , 0) ; line-height: 18px&quot;&gt;&lt;span style=&quot;color: rgb(156 , 220 , 254) ; font-family: &amp;#34;fira code retina&amp;#34; , &amp;#34;consolas&amp;#34; , &amp;#34;courier new&amp;#34; , monospace ; font-size: 13px&quot;&gt;candidateRef&lt;/span&gt;&lt;br&gt;&lt;/div&gt;" style="text;html=1;align=center;verticalAlign=middle;resizable=0;points=[];autosize=1;" vertex="1" parent="20">
                    <mxGeometry x="40" y="90" width="110" height="20" as="geometry"/>
                </mxCell>
                <mxCell id="31" value="&lt;div style=&quot;background-color: rgb(0 , 0 , 0) ; line-height: 18px&quot;&gt;&lt;span style=&quot;color: rgb(156 , 220 , 254) ; font-family: &amp;#34;fira code retina&amp;#34; , &amp;#34;consolas&amp;#34; , &amp;#34;courier new&amp;#34; , monospace ; font-size: 13px&quot;&gt;offerRef&lt;/span&gt;&lt;br&gt;&lt;/div&gt;" style="text;html=1;align=center;verticalAlign=middle;resizable=0;points=[];autosize=1;" vertex="1" parent="20">
                    <mxGeometry x="55" y="110" width="80" height="20" as="geometry"/>
                </mxCell>
                <mxCell id="32" value="Candidate" style="swimlane;" vertex="1" parent="1">
                    <mxGeometry x="520" y="10" width="200" height="250" as="geometry"/>
                </mxCell>
                <mxCell id="33" value="&lt;div style=&quot;color: rgb(255 , 255 , 255) ; background-color: rgb(0 , 0 , 0) ; font-family: &amp;#34;fira code retina&amp;#34; , &amp;#34;consolas&amp;#34; , &amp;#34;courier new&amp;#34; , monospace ; font-size: 13px ; line-height: 18px&quot;&gt;&lt;div style=&quot;font-family: &amp;#34;fira code retina&amp;#34; , &amp;#34;consolas&amp;#34; , &amp;#34;courier new&amp;#34; , monospace ; line-height: 18px&quot;&gt;&lt;span style=&quot;color: #9cdcfe&quot;&gt;lastname&lt;/span&gt;&lt;/div&gt;&lt;/div&gt;" style="text;html=1;align=center;verticalAlign=middle;resizable=0;points=[];autosize=1;" vertex="1" parent="32">
                    <mxGeometry x="53" y="50" width="80" height="20" as="geometry"/>
                </mxCell>
                <mxCell id="34" value="&lt;div style=&quot;color: rgb(255 , 255 , 255) ; background-color: rgb(0 , 0 , 0) ; font-family: &amp;#34;fira code retina&amp;#34; , &amp;#34;consolas&amp;#34; , &amp;#34;courier new&amp;#34; , monospace ; font-size: 13px ; line-height: 18px&quot;&gt;&lt;div style=&quot;font-family: &amp;#34;fira code retina&amp;#34; , &amp;#34;consolas&amp;#34; , &amp;#34;courier new&amp;#34; , monospace ; line-height: 18px&quot;&gt;&lt;span style=&quot;color: #9cdcfe&quot;&gt;username&lt;/span&gt;&lt;/div&gt;&lt;/div&gt;" style="text;html=1;align=center;verticalAlign=middle;resizable=0;points=[];autosize=1;" vertex="1" parent="32">
                    <mxGeometry x="53" y="70" width="80" height="20" as="geometry"/>
                </mxCell>
                <mxCell id="35" value="&lt;div style=&quot;color: rgb(255 , 255 , 255) ; background-color: rgb(0 , 0 , 0) ; font-family: &amp;#34;fira code retina&amp;#34; , &amp;#34;consolas&amp;#34; , &amp;#34;courier new&amp;#34; , monospace ; font-size: 13px ; line-height: 18px&quot;&gt;&lt;div style=&quot;font-family: &amp;#34;fira code retina&amp;#34; , &amp;#34;consolas&amp;#34; , &amp;#34;courier new&amp;#34; , monospace ; line-height: 18px&quot;&gt;&lt;span style=&quot;color: #9cdcfe&quot;&gt;firstname&lt;/span&gt;&lt;/div&gt;&lt;/div&gt;" style="text;html=1;align=center;verticalAlign=middle;resizable=0;points=[];autosize=1;" vertex="1" parent="32">
                    <mxGeometry x="48" y="30" width="90" height="20" as="geometry"/>
                </mxCell>
                <mxCell id="36" value="&lt;div style=&quot;color: rgb(255 , 255 , 255) ; background-color: rgb(0 , 0 , 0) ; font-family: &amp;#34;fira code retina&amp;#34; , &amp;#34;consolas&amp;#34; , &amp;#34;courier new&amp;#34; , monospace ; font-size: 13px ; line-height: 18px&quot;&gt;&lt;div style=&quot;font-family: &amp;#34;fira code retina&amp;#34; , &amp;#34;consolas&amp;#34; , &amp;#34;courier new&amp;#34; , monospace ; line-height: 18px&quot;&gt;&lt;span style=&quot;color: #9cdcfe&quot;&gt;email&lt;/span&gt;&lt;/div&gt;&lt;/div&gt;" style="text;html=1;align=center;verticalAlign=middle;resizable=0;points=[];autosize=1;" vertex="1" parent="32">
                    <mxGeometry x="63" y="90" width="60" height="20" as="geometry"/>
                </mxCell>
                <mxCell id="37" value="&lt;div style=&quot;color: rgb(255 , 255 , 255) ; background-color: rgb(0 , 0 , 0) ; font-family: &amp;#34;fira code retina&amp;#34; , &amp;#34;consolas&amp;#34; , &amp;#34;courier new&amp;#34; , monospace ; font-size: 13px ; line-height: 18px&quot;&gt;&lt;div style=&quot;font-family: &amp;#34;fira code retina&amp;#34; , &amp;#34;consolas&amp;#34; , &amp;#34;courier new&amp;#34; , monospace ; line-height: 18px&quot;&gt;&lt;span style=&quot;color: #9cdcfe&quot;&gt;dni&lt;/span&gt;&lt;/div&gt;&lt;/div&gt;" style="text;html=1;align=center;verticalAlign=middle;resizable=0;points=[];autosize=1;" vertex="1" parent="32">
                    <mxGeometry x="73" y="110" width="40" height="20" as="geometry"/>
                </mxCell>
                <mxCell id="38" value="&lt;div style=&quot;color: rgb(255 , 255 , 255) ; background-color: rgb(0 , 0 , 0) ; font-family: &amp;#34;fira code retina&amp;#34; , &amp;#34;consolas&amp;#34; , &amp;#34;courier new&amp;#34; , monospace ; font-size: 13px ; line-height: 18px&quot;&gt;&lt;div style=&quot;font-family: &amp;#34;fira code retina&amp;#34; , &amp;#34;consolas&amp;#34; , &amp;#34;courier new&amp;#34; , monospace ; line-height: 18px&quot;&gt;&lt;span style=&quot;color: #9cdcfe&quot;&gt;password&lt;/span&gt;&lt;/div&gt;&lt;/div&gt;" style="text;html=1;align=center;verticalAlign=middle;resizable=0;points=[];autosize=1;" vertex="1" parent="32">
                    <mxGeometry x="53" y="130" width="80" height="20" as="geometry"/>
                </mxCell>
                <mxCell id="39" value="&lt;div style=&quot;color: rgb(255 , 255 , 255) ; background-color: rgb(0 , 0 , 0) ; font-family: &amp;#34;fira code retina&amp;#34; , &amp;#34;consolas&amp;#34; , &amp;#34;courier new&amp;#34; , monospace ; font-size: 13px ; line-height: 18px&quot;&gt;&lt;div style=&quot;font-family: &amp;#34;fira code retina&amp;#34; , &amp;#34;consolas&amp;#34; , &amp;#34;courier new&amp;#34; , monospace ; line-height: 18px&quot;&gt;&lt;span style=&quot;color: #9cdcfe&quot;&gt;age&lt;/span&gt;&lt;/div&gt;&lt;/div&gt;" style="text;html=1;align=center;verticalAlign=middle;resizable=0;points=[];autosize=1;" vertex="1" parent="32">
                    <mxGeometry x="73" y="150" width="40" height="20" as="geometry"/>
                </mxCell>
                <mxCell id="40" value="&lt;div style=&quot;color: rgb(255 , 255 , 255) ; background-color: rgb(0 , 0 , 0) ; font-family: &amp;#34;fira code retina&amp;#34; , &amp;#34;consolas&amp;#34; , &amp;#34;courier new&amp;#34; , monospace ; font-size: 13px ; line-height: 18px&quot;&gt;&lt;div style=&quot;font-family: &amp;#34;fira code retina&amp;#34; , &amp;#34;consolas&amp;#34; , &amp;#34;courier new&amp;#34; , monospace ; line-height: 18px&quot;&gt;&lt;span style=&quot;color: #9cdcfe&quot;&gt;profession&lt;/span&gt;&lt;/div&gt;&lt;/div&gt;" style="text;html=1;align=center;verticalAlign=middle;resizable=0;points=[];autosize=1;" vertex="1" parent="32">
                    <mxGeometry x="43" y="170" width="100" height="20" as="geometry"/>
                </mxCell>
                <mxCell id="41" value="&lt;div style=&quot;color: rgb(255 , 255 , 255) ; background-color: rgb(0 , 0 , 0) ; font-family: &amp;#34;fira code retina&amp;#34; , &amp;#34;consolas&amp;#34; , &amp;#34;courier new&amp;#34; , monospace ; font-size: 13px ; line-height: 18px&quot;&gt;&lt;span style=&quot;color: #9cdcfe&quot;&gt;publicationdate&lt;/span&gt;&lt;/div&gt;" style="text;html=1;align=center;verticalAlign=middle;resizable=0;points=[];autosize=1;" vertex="1" parent="32">
                    <mxGeometry x="23" y="190" width="140" height="20" as="geometry"/>
                </mxCell>
                <mxCell id="42" value="&lt;div style=&quot;color: rgb(255 , 255 , 255) ; background-color: rgb(0 , 0 , 0) ; font-family: &amp;#34;fira code retina&amp;#34; , &amp;#34;consolas&amp;#34; , &amp;#34;courier new&amp;#34; , monospace ; font-size: 13px ; line-height: 18px&quot;&gt;&lt;div style=&quot;font-family: &amp;#34;fira code retina&amp;#34; , &amp;#34;consolas&amp;#34; , &amp;#34;courier new&amp;#34; , monospace ; line-height: 18px&quot;&gt;&lt;span style=&quot;color: rgb(156 , 220 , 254)&quot;&gt;postulantRef&lt;/span&gt;&lt;br&gt;&lt;/div&gt;&lt;/div&gt;" style="text;html=1;align=center;verticalAlign=middle;resizable=0;points=[];autosize=1;" vertex="1" parent="32">
                    <mxGeometry x="38" y="210" width="110" height="20" as="geometry"/>
                </mxCell>
                <mxCell id="50" value="" style="endArrow=classic;startArrow=classic;html=1;" edge="1" parent="1">
                    <mxGeometry width="50" height="50" relative="1" as="geometry">
                        <mxPoint x="140" y="230" as="sourcePoint"/>
                        <mxPoint x="230" y="130" as="targetPoint"/>
                    </mxGeometry>
                </mxCell>
                <mxCell id="51" value="" style="endArrow=classic;startArrow=classic;html=1;exitX=1;exitY=0.75;exitDx=0;exitDy=0;" edge="1" parent="1" source="20">
                    <mxGeometry width="50" height="50" relative="1" as="geometry">
                        <mxPoint x="430" y="160" as="sourcePoint"/>
                        <mxPoint x="520" y="233" as="targetPoint"/>
                    </mxGeometry>
                </mxCell>
                <mxCell id="52" value="Admin" style="swimlane;" vertex="1" parent="1">
                    <mxGeometry x="230" y="240" width="200" height="140" as="geometry"/>
                </mxCell>
                <mxCell id="53" value="&lt;div style=&quot;background-color: rgb(0 , 0 , 0) ; line-height: 18px&quot;&gt;&lt;font color=&quot;#9cdcfe&quot; face=&quot;fira code retina, consolas, courier new, monospace&quot;&gt;&lt;span style=&quot;font-size: 13px&quot;&gt;password&lt;/span&gt;&lt;/font&gt;&lt;br&gt;&lt;/div&gt;" style="text;html=1;align=center;verticalAlign=middle;resizable=0;points=[];autosize=1;" vertex="1" parent="52">
                    <mxGeometry x="50" y="50" width="80" height="20" as="geometry"/>
                </mxCell>
                <mxCell id="55" value="&lt;div style=&quot;background-color: rgb(0 , 0 , 0) ; line-height: 18px&quot;&gt;&lt;font color=&quot;#9cdcfe&quot; face=&quot;fira code retina, consolas, courier new, monospace&quot;&gt;&lt;span style=&quot;font-size: 13px&quot;&gt;username&lt;/span&gt;&lt;/font&gt;&lt;br&gt;&lt;/div&gt;" style="text;html=1;align=center;verticalAlign=middle;resizable=0;points=[];autosize=1;" vertex="1" parent="52">
                    <mxGeometry x="50" y="30" width="80" height="20" as="geometry"/>
                </mxCell>
            </root>
        </mxGraphModel>
    </diagram>
</mxfile>